<svg xmlns="http://www.w3.org/2000/svg" xmlns:xlink="http://www.w3.org/1999/xlink" width="100" zoomAndPan="magnify" viewBox="0 0 75 74.999997" height="100" preserveAspectRatio="xMidYMid meet" version="1.0"><defs><clipPath id="id1"><path d="M 27 13.390625 L 57.292969 13.390625 L 57.292969 56 L 27 56 Z M 27 13.390625 " clip-rule="nonzero"/></clipPath><clipPath id="id2"><path d="M 17.542969 35 L 26 35 L 26 55 L 17.542969 55 Z M 17.542969 35 " clip-rule="nonzero"/></clipPath></defs><rect x="-7.5" width="90" fill="rgb(37.249756%, 36.468506%, 36.079407%)" y="-7.5" height="89.999996" fill-opacity="1"/><g clip-path="url(#id1)"><path fill="rgb(100%, 100%, 100%)" d="M 55.707031 37.394531 C 55.792969 36.707031 57.039062 35.695312 57.082031 35.007812 C 57.152344 33.753906 55.480469 31.300781 54.332031 30.828125 C 52.503906 30.082031 43.230469 30.429688 43.230469 30.429688 C 42.324219 28.824219 44.847656 24.863281 45.539062 23.152344 C 46.558594 20.644531 46.386719 17.320312 45.097656 15.609375 C 43.527344 13.523438 40.640625 13.382812 40.582031 14.320312 C 40.152344 21.09375 38.871094 22.972656 37.15625 24.3125 C 36.125 25.117188 35.226562 25.824219 34.75 27.050781 C 31.828125 34.585938 29.660156 36.332031 28.421875 36.332031 L 27.597656 36.332031 L 27.597656 53.464844 L 36.261719 55.097656 C 36.261719 55.097656 47.015625 56.128906 50.402344 55.097656 C 51.46875 54.773438 53.308594 53.152344 53.742188 52.113281 C 53.992188 51.515625 53.644531 50.101562 53.941406 49.527344 C 54.371094 48.671875 56.199219 47.605469 56.199219 46.445312 C 56.195312 45.617188 55.246094 44.183594 55.316406 43.359375 C 55.382812 42.535156 57.085938 41.402344 57.082031 40.574219 C 57.078125 39.707031 55.59375 38.253906 55.707031 37.394531 Z M 55.707031 37.394531 " fill-opacity="1" fill-rule="nonzero"/></g><g clip-path="url(#id2)"><path fill="rgb(100%, 100%, 100%)" d="M 25.949219 53.046875 C 25.949219 53.96875 25.207031 54.71875 24.296875 54.71875 L 19.34375 54.71875 C 18.433594 54.71875 17.695312 53.96875 17.695312 53.046875 L 17.695312 37.167969 C 17.695312 36.246094 18.433594 35.496094 19.34375 35.496094 L 24.296875 35.496094 C 25.207031 35.496094 25.949219 36.246094 25.949219 37.167969 Z M 25.949219 53.046875 " fill-opacity="1" fill-rule="nonzero"/></g></svg>