<svg xmlns="http://www.w3.org/2000/svg" xmlns:xlink="http://www.w3.org/1999/xlink" width="100" zoomAndPan="magnify" viewBox="0 0 75 74.999997" height="100" preserveAspectRatio="xMidYMid meet" version="1.0"><defs><clipPath id="id1"><path d="M 15.332031 16 L 59.582031 16 L 59.582031 56.890625 L 15.332031 56.890625 Z M 15.332031 16 " clip-rule="nonzero"/></clipPath><clipPath id="id2"><path d="M 23 13.390625 L 28 13.390625 L 28 23 L 23 23 Z M 23 13.390625 " clip-rule="nonzero"/></clipPath><clipPath id="id3"><path d="M 47 13.390625 L 52 13.390625 L 52 23 L 47 23 Z M 47 13.390625 " clip-rule="nonzero"/></clipPath></defs><rect x="-7.5" width="90" fill="rgb(37.249756%, 36.468506%, 36.079407%)" y="-7.5" height="89.999996" fill-opacity="1"/><g clip-path="url(#id1)"><path fill="rgb(100%, 100%, 100%)" d="M 55.09375 16.652344 L 52.351562 16.652344 L 52.351562 20.355469 C 52.351562 22.109375 50.929688 23.472656 49.214844 23.472656 L 49.019531 23.472656 C 47.253906 23.472656 45.882812 22.0625 45.882812 20.355469 L 45.882812 16.652344 L 28.738281 16.652344 L 28.738281 20.355469 C 28.738281 22.109375 27.316406 23.472656 25.601562 23.472656 L 25.40625 23.472656 C 23.644531 23.472656 22.269531 22.0625 22.269531 20.355469 L 22.269531 16.652344 L 19.820312 16.652344 C 17.371094 16.652344 15.414062 18.601562 15.414062 21.039062 L 15.414062 52.503906 C 15.414062 54.941406 17.371094 56.890625 19.820312 56.890625 L 48.773438 56.890625 L 50.832031 56.839844 C 51.078125 56.742188 51.320312 56.644531 51.515625 56.453125 L 58.621094 48.949219 C 58.71875 48.851562 58.769531 48.753906 58.867188 48.65625 C 59.257812 48.171875 59.453125 47.585938 59.453125 47 L 59.453125 21.039062 C 59.503906 18.601562 57.542969 16.652344 55.09375 16.652344 Z M 50.78125 52.699219 L 50.78125 48.902344 C 50.78125 48.171875 51.371094 47.632812 52.054688 47.632812 L 55.632812 47.632812 Z M 56.367188 44.515625 L 52.054688 44.515625 C 49.605469 44.515625 47.648438 46.464844 47.648438 48.902344 L 47.648438 53.820312 L 19.820312 53.820312 C 19.085938 53.820312 18.546875 53.238281 18.546875 52.554688 L 18.546875 27.953125 L 56.417969 27.953125 L 56.417969 44.515625 Z M 56.367188 44.515625 " fill-opacity="1" fill-rule="nonzero"/></g><g clip-path="url(#id2)"><path fill="rgb(100%, 100%, 100%)" d="M 25.554688 22.109375 C 26.53125 22.109375 27.367188 21.28125 27.367188 20.308594 L 27.367188 15.191406 C 27.367188 14.21875 26.53125 13.390625 25.554688 13.390625 L 25.355469 13.390625 C 24.378906 13.390625 23.542969 14.21875 23.542969 15.191406 L 23.542969 20.355469 C 23.542969 21.328125 24.378906 22.15625 25.355469 22.15625 L 25.554688 22.15625 Z M 25.554688 22.109375 " fill-opacity="1" fill-rule="nonzero"/></g><g clip-path="url(#id3)"><path fill="rgb(100%, 100%, 100%)" d="M 49.214844 22.109375 C 50.195312 22.109375 51.027344 21.28125 51.027344 20.308594 L 51.027344 15.191406 C 51.027344 14.21875 50.195312 13.390625 49.214844 13.390625 L 49.019531 13.390625 C 48.039062 13.390625 47.207031 14.21875 47.207031 15.191406 L 47.207031 20.355469 C 47.207031 21.328125 48.039062 22.15625 49.019531 22.15625 L 49.214844 22.15625 Z M 49.214844 22.109375 " fill-opacity="1" fill-rule="nonzero"/></g><path fill="rgb(100%, 100%, 100%)" d="M 23.347656 32.242188 L 26.972656 32.242188 L 26.972656 35.847656 L 23.347656 35.847656 Z M 23.347656 32.242188 " fill-opacity="1" fill-rule="nonzero"/><path fill="rgb(100%, 100%, 100%)" d="M 31.578125 32.242188 L 35.203125 32.242188 L 35.203125 35.847656 L 31.578125 35.847656 Z M 31.578125 32.242188 " fill-opacity="1" fill-rule="nonzero"/><path fill="rgb(100%, 100%, 100%)" d="M 39.808594 32.242188 L 43.433594 32.242188 L 43.433594 35.847656 L 39.808594 35.847656 Z M 39.808594 32.242188 " fill-opacity="1" fill-rule="nonzero"/><path fill="rgb(100%, 100%, 100%)" d="M 47.988281 32.242188 L 51.617188 32.242188 L 51.617188 35.847656 L 47.988281 35.847656 Z M 47.988281 32.242188 " fill-opacity="1" fill-rule="nonzero"/><path fill="rgb(100%, 100%, 100%)" d="M 23.347656 39.160156 L 26.972656 39.160156 L 26.972656 42.761719 L 23.347656 42.761719 Z M 23.347656 39.160156 " fill-opacity="1" fill-rule="nonzero"/><path fill="rgb(100%, 100%, 100%)" d="M 31.578125 39.160156 L 35.203125 39.160156 L 35.203125 42.761719 L 31.578125 42.761719 Z M 31.578125 39.160156 " fill-opacity="1" fill-rule="nonzero"/><path fill="rgb(100%, 100%, 100%)" d="M 39.808594 39.160156 L 43.433594 39.160156 L 43.433594 42.761719 L 39.808594 42.761719 Z M 39.808594 39.160156 " fill-opacity="1" fill-rule="nonzero"/><path fill="rgb(100%, 100%, 100%)" d="M 47.988281 39.160156 L 51.617188 39.160156 L 51.617188 42.761719 L 47.988281 42.761719 Z M 47.988281 39.160156 " fill-opacity="1" fill-rule="nonzero"/><path fill="rgb(100%, 100%, 100%)" d="M 23.347656 46.125 L 26.972656 46.125 L 26.972656 49.730469 L 23.347656 49.730469 Z M 23.347656 46.125 " fill-opacity="1" fill-rule="nonzero"/><path fill="rgb(100%, 100%, 100%)" d="M 31.578125 46.125 L 35.203125 46.125 L 35.203125 49.730469 L 31.578125 49.730469 Z M 31.578125 46.125 " fill-opacity="1" fill-rule="nonzero"/><path fill="rgb(100%, 100%, 100%)" d="M 39.808594 46.125 L 43.433594 46.125 L 43.433594 49.730469 L 39.808594 49.730469 Z M 39.808594 46.125 " fill-opacity="1" fill-rule="nonzero"/></svg>