<svg xmlns="http://www.w3.org/2000/svg" xmlns:xlink="http://www.w3.org/1999/xlink" width="100" zoomAndPan="magnify" viewBox="0 0 75 74.999997" height="100" preserveAspectRatio="xMidYMid meet" version="1.0"><defs><clipPath id="id1"><path d="M 20.125 15.089844 L 53.125 15.089844 L 53.125 57.839844 L 20.125 57.839844 Z M 20.125 15.089844 " clip-rule="nonzero"/></clipPath></defs><rect x="-7.5" width="90" fill="rgb(37.249756%, 36.468506%, 36.079407%)" y="-7.5" height="89.999996" fill-opacity="1"/><g clip-path="url(#id1)"><path fill="rgb(100%, 100%, 100%)" d="M 53.125 54.605469 C 53.125 43.199219 45.734375 33.960938 36.625 33.960938 C 27.519531 33.960938 20.125 43.199219 20.125 54.605469 C 20.125 56.382812 27.519531 57.832031 36.625 57.832031 C 45.734375 57.832031 53.125 56.382812 53.125 54.605469 Z M 36.625 15.09375 C 41.59375 15.09375 45.617188 19.132812 45.617188 24.121094 C 45.617188 29.105469 41.59375 33.148438 36.625 33.148438 C 31.660156 33.148438 27.632812 29.105469 27.632812 24.121094 C 27.632812 19.132812 31.660156 15.09375 36.625 15.09375 Z M 36.625 15.09375 " fill-opacity="1" fill-rule="evenodd"/></g></svg>