<svg xmlns="http://www.w3.org/2000/svg" xmlns:xlink="http://www.w3.org/1999/xlink" width="100" zoomAndPan="magnify" viewBox="0 0 75 74.999997" height="100" preserveAspectRatio="xMidYMid meet" version="1.0"><defs><clipPath id="id1"><path d="M 19.5 20.25 L 55.5 20.25 L 55.5 56.25 L 19.5 56.25 Z M 19.5 20.25 " clip-rule="nonzero"/></clipPath></defs><rect x="-7.5" width="90" fill="rgb(37.249756%, 36.468506%, 36.079407%)" y="-7.5" height="89.999996" fill-opacity="1"/><g clip-path="url(#id1)"><path fill="rgb(100%, 100%, 100%)" d="M 54.4375 37.492188 L 38.246094 21.304688 C 37.589844 20.65625 36.691406 20.25 35.699219 20.25 L 23.101562 20.25 C 21.109375 20.25 19.5 21.859375 19.5 23.851562 L 19.5 36.449219 C 19.5 37.449219 19.90625 38.347656 20.5625 38.996094 L 36.761719 55.195312 C 37.410156 55.84375 38.308594 56.25 39.300781 56.25 C 40.289062 56.25 41.199219 55.84375 41.847656 55.195312 L 54.445312 42.597656 C 55.09375 41.941406 55.5 41.039062 55.5 40.050781 C 55.5 39.050781 55.09375 38.152344 54.4375 37.492188 Z M 25.800781 29.25 C 24.304688 29.25 23.101562 28.042969 23.101562 26.550781 C 23.101562 25.054688 24.304688 23.851562 25.800781 23.851562 C 27.292969 23.851562 28.5 25.054688 28.5 26.550781 C 28.5 28.042969 27.292969 29.25 25.800781 29.25 Z M 25.800781 29.25 " fill-opacity="1" fill-rule="nonzero"/></g></svg>