<svg xmlns="http://www.w3.org/2000/svg" xmlns:xlink="http://www.w3.org/1999/xlink" width="100" zoomAndPan="magnify" viewBox="0 0 75 74.999997" height="100" preserveAspectRatio="xMidYMid meet" version="1.0"><defs><clipPath id="id1"><path d="M 0 22.582031 L 75 22.582031 L 75 42.832031 L 0 42.832031 Z M 0 22.582031 " clip-rule="nonzero"/></clipPath></defs><path fill="rgb(100%, 100%, 100%)" d="M 64.648438 29.015625 C 64.648438 29.015625 64.648438 29.023438 64.648438 29.023438 C 64.644531 29.078125 64.625 29.132812 64.597656 29.183594 C 64.589844 29.203125 64.574219 29.214844 64.5625 29.230469 C 64.539062 29.257812 64.519531 29.289062 64.492188 29.3125 C 64.488281 29.316406 64.480469 29.320312 64.476562 29.324219 C 64.457031 29.34375 64.429688 29.351562 64.402344 29.363281 C 64.386719 29.375 64.375 29.382812 64.355469 29.386719 C 64.308594 29.40625 64.253906 29.414062 64.199219 29.414062 L 60.777344 29.363281 L 2.804688 28.519531 L 2.683594 33.046875 L 64.128906 32.742188 C 64.367188 32.742188 64.558594 32.921875 64.570312 33.152344 L 64.792969 37.527344 L 73.84375 31.335938 L 65.070312 23.996094 Z M 64.648438 29.015625 " fill-opacity="1" fill-rule="nonzero"/><g clip-path="url(#id1)"><path fill="rgb(13.729858%, 12.159729%, 12.548828%)" d="M 74.96875 31.222656 C 74.964844 31.214844 74.964844 31.207031 74.960938 31.195312 C 74.9375 31.148438 74.910156 31.105469 74.871094 31.066406 C 74.867188 31.058594 74.855469 31.058594 74.851562 31.050781 C 74.847656 31.046875 74.847656 31.042969 74.84375 31.039062 L 64.992188 22.792969 C 64.980469 22.78125 64.96875 22.777344 64.957031 22.769531 C 64.945312 22.761719 64.9375 22.75 64.929688 22.746094 C 64.925781 22.742188 64.914062 22.742188 64.910156 22.738281 C 64.886719 22.730469 64.871094 22.722656 64.847656 22.710938 C 64.832031 22.707031 64.8125 22.699219 64.792969 22.695312 C 64.773438 22.691406 64.753906 22.691406 64.730469 22.691406 C 64.714844 22.691406 64.695312 22.683594 64.675781 22.691406 C 64.652344 22.691406 64.632812 22.695312 64.613281 22.699219 C 64.59375 22.703125 64.570312 22.707031 64.554688 22.710938 C 64.550781 22.710938 64.539062 22.710938 64.535156 22.714844 C 64.523438 22.722656 64.507812 22.734375 64.496094 22.738281 C 64.480469 22.746094 64.46875 22.746094 64.457031 22.757812 L 61.136719 24.992188 C 61.039062 25.058594 60.972656 25.164062 60.949219 25.277344 L 60.410156 28.484375 L 2.382812 27.648438 C 2.378906 27.648438 2.375 27.652344 2.371094 27.652344 C 2.320312 27.652344 2.273438 27.660156 2.226562 27.679688 C 2.222656 27.679688 2.21875 27.679688 2.214844 27.683594 C 2.164062 27.699219 2.121094 27.730469 2.085938 27.765625 C 2.070312 27.78125 2.0625 27.792969 2.054688 27.804688 C 2.035156 27.828125 2.011719 27.847656 2 27.871094 L 0.152344 31.085938 C 0.117188 31.148438 0.09375 31.21875 0.09375 31.292969 L 0 36.515625 C 0 36.628906 0.0429688 36.746094 0.125 36.828125 C 0.207031 36.910156 0.320312 36.957031 0.4375 36.957031 L 61.144531 37.089844 L 61.097656 42.25 C 61.097656 42.40625 61.183594 42.558594 61.324219 42.632812 C 61.46875 42.710938 61.636719 42.703125 61.777344 42.617188 L 71.542969 36.441406 C 71.554688 36.433594 71.566406 36.425781 71.574219 36.417969 C 71.613281 36.390625 71.644531 36.355469 71.667969 36.316406 L 74.925781 31.613281 C 74.929688 31.605469 74.933594 31.597656 74.9375 31.589844 C 74.945312 31.570312 74.957031 31.554688 74.960938 31.535156 C 74.976562 31.5 74.988281 31.460938 74.992188 31.421875 C 74.992188 31.414062 75 31.398438 75 31.390625 C 75 31.382812 74.996094 31.371094 74.996094 31.367188 C 74.996094 31.320312 74.988281 31.273438 74.96875 31.222656 Z M 64.789062 37.527344 L 64.566406 33.152344 C 64.554688 32.917969 64.363281 32.738281 64.125 32.742188 L 2.683594 33.046875 L 2.804688 28.519531 L 60.78125 29.363281 L 64.207031 29.414062 C 64.257812 29.414062 64.3125 29.40625 64.363281 29.386719 C 64.378906 29.382812 64.386719 29.371094 64.40625 29.363281 C 64.433594 29.351562 64.460938 29.34375 64.480469 29.324219 C 64.488281 29.320312 64.492188 29.316406 64.496094 29.3125 C 64.527344 29.289062 64.542969 29.257812 64.566406 29.230469 C 64.582031 29.210938 64.59375 29.203125 64.601562 29.183594 C 64.628906 29.136719 64.648438 29.082031 64.652344 29.023438 C 64.652344 29.023438 64.652344 29.015625 64.652344 29.015625 L 65.074219 23.996094 L 73.84375 31.335938 Z M 64.789062 37.527344 " fill-opacity="1" fill-rule="nonzero"/></g></svg>