<svg xmlns="http://www.w3.org/2000/svg" xmlns:xlink="http://www.w3.org/1999/xlink" width="100" zoomAndPan="magnify" viewBox="0 0 75 37.5" height="50" preserveAspectRatio="xMidYMid meet" version="1.0"><defs><clipPath id="id1"><path d="M 65 8 L 74.503906 8 L 74.503906 27.695312 L 65 27.695312 Z M 65 8 " clip-rule="nonzero"/></clipPath></defs><g clip-path="url(#id1)"><path fill="rgb(100%, 100%, 100%)" d="M 67.226562 27.535156 C 66.882812 27.535156 66.53125 27.425781 66.242188 27.195312 C 65.5625 26.65625 65.457031 25.671875 66 24.992188 L 71.488281 18.132812 L 66 11.28125 C 65.457031 10.605469 65.5625 9.617188 66.242188 9.078125 C 66.925781 8.535156 67.910156 8.644531 68.449219 9.320312 L 74.726562 17.15625 C 75.1875 17.730469 75.1875 18.542969 74.726562 19.117188 L 68.449219 26.949219 C 68.140625 27.335938 67.6875 27.535156 67.226562 27.535156 Z M 67.226562 27.535156 " fill-opacity="1" fill-rule="nonzero"/></g><path fill="rgb(100%, 100%, 100%)" d="M 71.96875 19.703125 L 2.867188 19.703125 C 2.003906 19.703125 1.296875 19 1.296875 18.132812 C 1.296875 17.269531 2.003906 16.566406 2.867188 16.566406 L 71.96875 16.566406 C 72.832031 16.566406 73.539062 17.269531 73.539062 18.132812 C 73.539062 19 72.832031 19.703125 71.96875 19.703125 Z M 71.96875 19.703125 " fill-opacity="1" fill-rule="nonzero"/></svg>