<svg xmlns="http://www.w3.org/2000/svg" xmlns:xlink="http://www.w3.org/1999/xlink" width="700" zoomAndPan="magnify" viewBox="0 0 525 149.999998" height="200" preserveAspectRatio="xMidYMid meet" version="1.0"><defs><g/><clipPath id="id1"><path d="M 230.203125 27.738281 L 324.703125 27.738281 L 324.703125 122.238281 L 230.203125 122.238281 Z M 230.203125 27.738281 " clip-rule="nonzero"/></clipPath></defs><g clip-path="url(#id1)"><path fill="rgb(100%, 8.628845%, 8.628845%)" d="M 324.652344 62.628906 L 324.652344 59.957031 C 324.632812 59.832031 324.617188 59.703125 324.609375 59.578125 C 324.582031 59.46875 324.546875 59.320312 324.539062 59.292969 L 324.59375 59.242188 L 324.59375 59.074219 C 324.59375 59.074219 324.53125 58.816406 324.519531 58.792969 L 324.550781 58.765625 L 324.316406 58.898438 L 324.003906 58.503906 C 323.914062 58.449219 323.574219 58.152344 323.496094 58.074219 L 278.609375 28.140625 C 278.257812 27.90625 277.871094 27.789062 277.449219 27.789062 C 277.027344 27.789062 276.640625 27.90625 276.289062 28.140625 L 231.183594 58.207031 L 230.835938 58.5 C 230.792969 58.585938 230.582031 58.851562 230.527344 58.929688 C 230.472656 59.097656 230.394531 59.25 230.28125 59.386719 L 230.28125 59.484375 L 230.257812 62.617188 L 230.257812 90.023438 L 230.324219 90.527344 C 230.421875 90.722656 230.503906 90.921875 230.566406 91.132812 C 230.601562 91.167969 230.878906 91.5 230.914062 91.539062 C 231.105469 91.667969 231.285156 91.8125 231.453125 91.96875 L 276.300781 121.835938 C 276.65625 122.0625 277.042969 122.179688 277.464844 122.179688 C 277.886719 122.179688 278.273438 122.0625 278.628906 121.835938 L 323.730469 91.765625 L 324.074219 91.476562 C 324.15625 91.351562 324.246094 91.234375 324.339844 91.125 C 324.371094 91.054688 324.53125 90.761719 324.566406 90.695312 C 324.605469 90.625 324.605469 90.492188 324.632812 90.375 C 324.640625 90.308594 324.652344 90.242188 324.667969 90.175781 Z M 279.550781 57.042969 L 279.550781 37.277344 C 279.550781 36.878906 279.652344 36.511719 279.855469 36.171875 C 280.058594 35.832031 280.335938 35.566406 280.6875 35.378906 C 281.035156 35.191406 281.410156 35.109375 281.804688 35.128906 C 282.203125 35.148438 282.5625 35.269531 282.894531 35.488281 L 316.109375 57.644531 C 316.410156 57.84375 316.644531 58.101562 316.8125 58.417969 C 316.984375 58.734375 317.066406 59.070312 317.066406 59.429688 C 317.050781 59.523438 317.027344 59.609375 317 59.699219 C 317.027344 59.785156 317.050781 59.871094 317.066406 59.960938 C 317.066406 60.320312 316.984375 60.65625 316.8125 60.972656 C 316.644531 61.289062 316.410156 61.546875 316.109375 61.746094 L 301.269531 71.667969 C 300.910156 71.910156 300.511719 72.03125 300.074219 72.03125 C 299.640625 72.03125 299.242188 71.910156 298.882812 71.667969 L 280.492188 59.378906 C 280.195312 59.179688 279.960938 58.921875 279.789062 58.605469 C 279.621094 58.289062 279.535156 57.953125 279.535156 57.59375 Z M 237.84375 59.417969 C 237.84375 59.0625 237.929688 58.726562 238.097656 58.414062 C 238.265625 58.097656 238.496094 57.84375 238.792969 57.644531 L 272.023438 35.472656 C 272.351562 35.25 272.714844 35.132812 273.109375 35.113281 C 273.507812 35.09375 273.878906 35.175781 274.230469 35.363281 C 274.578125 35.550781 274.855469 35.8125 275.058594 36.152344 C 275.261719 36.492188 275.363281 36.863281 275.363281 37.257812 L 275.363281 57.59375 C 275.363281 57.953125 275.277344 58.289062 275.109375 58.605469 C 274.9375 58.921875 274.703125 59.179688 274.40625 59.378906 L 256.015625 71.667969 C 255.65625 71.910156 255.257812 72.03125 254.824219 72.03125 C 254.390625 72.03125 253.992188 71.910156 253.632812 71.667969 L 238.792969 61.746094 C 238.492188 61.546875 238.253906 61.289062 238.082031 60.972656 C 237.910156 60.65625 237.828125 60.316406 237.824219 59.957031 C 237.84375 59.867188 237.867188 59.777344 237.894531 59.695312 C 237.867188 59.609375 237.84375 59.519531 237.824219 59.429688 Z M 236.597656 84.226562 C 236.3125 84.226562 236.039062 84.171875 235.773438 84.0625 C 235.511719 83.953125 235.28125 83.796875 235.078125 83.59375 C 234.878906 83.394531 234.722656 83.160156 234.613281 82.898438 C 234.503906 82.636719 234.449219 82.363281 234.449219 82.078125 L 234.449219 67.902344 C 234.449219 67.503906 234.550781 67.136719 234.753906 66.792969 C 234.957031 66.453125 235.234375 66.191406 235.585938 66.003906 C 235.9375 65.816406 236.308594 65.730469 236.707031 65.753906 C 237.101562 65.773438 237.464844 65.894531 237.796875 66.113281 L 248.40625 73.210938 C 248.699219 73.410156 248.929688 73.667969 249.09375 73.984375 C 249.261719 74.296875 249.34375 74.632812 249.34375 74.988281 C 249.34375 75.347656 249.257812 75.6875 249.089844 76.003906 C 248.921875 76.320312 248.6875 76.578125 248.386719 76.777344 L 237.777344 83.871094 C 237.414062 84.113281 237.015625 84.234375 236.578125 84.238281 Z M 275.382812 112.144531 C 275.382812 112.429688 275.328125 112.703125 275.21875 112.96875 C 275.109375 113.230469 274.953125 113.460938 274.75 113.664062 C 274.550781 113.867188 274.316406 114.019531 274.054688 114.128906 C 273.792969 114.238281 273.519531 114.292969 273.234375 114.292969 C 272.796875 114.296875 272.398438 114.175781 272.039062 113.933594 L 238.792969 91.804688 C 238.644531 91.707031 238.511719 91.59375 238.394531 91.460938 C 238.273438 91.332031 238.171875 91.1875 238.089844 91.03125 C 238.007812 90.875 237.945312 90.714844 237.902344 90.542969 C 237.859375 90.371094 237.835938 90.195312 237.835938 90.019531 C 237.835938 89.84375 237.859375 89.667969 237.902344 89.496094 C 237.945312 89.324219 238.007812 89.160156 238.089844 89.007812 C 238.171875 88.851562 238.273438 88.707031 238.394531 88.574219 C 238.511719 88.445312 238.644531 88.332031 238.792969 88.230469 L 253.640625 78.308594 C 254.003906 78.066406 254.402344 77.945312 254.839844 77.945312 C 255.273438 77.945312 255.671875 78.066406 256.035156 78.308594 L 274.421875 90.617188 C 274.722656 90.816406 274.953125 91.074219 275.125 91.390625 C 275.292969 91.707031 275.375 92.042969 275.375 92.402344 Z M 277.453125 87.175781 C 277.015625 87.175781 276.621094 87.054688 276.257812 86.816406 L 261.257812 76.78125 C 260.960938 76.582031 260.726562 76.320312 260.558594 76.003906 C 260.390625 75.6875 260.308594 75.347656 260.308594 74.988281 C 260.324219 74.898438 260.34375 74.808594 260.371094 74.722656 C 260.34375 74.632812 260.324219 74.542969 260.308594 74.453125 C 260.308594 74.09375 260.390625 73.757812 260.558594 73.441406 C 260.726562 73.125 260.960938 72.867188 261.257812 72.664062 L 276.257812 62.632812 C 276.621094 62.394531 277.019531 62.273438 277.453125 62.273438 C 277.886719 62.273438 278.28125 62.394531 278.644531 62.632812 L 293.648438 72.664062 C 293.949219 72.863281 294.179688 73.125 294.351562 73.441406 C 294.519531 73.757812 294.601562 74.09375 294.601562 74.453125 C 294.585938 74.542969 294.5625 74.632812 294.535156 74.722656 C 294.5625 74.808594 294.585938 74.898438 294.601562 74.988281 C 294.601562 75.347656 294.519531 75.6875 294.351562 76.003906 C 294.179688 76.320312 293.949219 76.578125 293.648438 76.777344 L 278.644531 86.8125 C 278.285156 87.050781 277.886719 87.171875 277.453125 87.175781 Z M 316.109375 91.804688 L 282.871094 113.953125 C 282.511719 114.195312 282.113281 114.316406 281.679688 114.3125 C 281.394531 114.3125 281.121094 114.261719 280.855469 114.152344 C 280.59375 114.042969 280.359375 113.886719 280.160156 113.683594 C 279.957031 113.484375 279.804688 113.25 279.695312 112.988281 C 279.585938 112.726562 279.53125 112.453125 279.53125 112.167969 L 279.53125 92.40625 C 279.53125 92.046875 279.613281 91.710938 279.785156 91.394531 C 279.953125 91.078125 280.1875 90.820312 280.484375 90.621094 L 298.882812 78.3125 C 299.242188 78.070312 299.640625 77.949219 300.078125 77.949219 C 300.511719 77.949219 300.910156 78.070312 301.273438 78.3125 L 316.109375 88.230469 C 316.257812 88.332031 316.390625 88.445312 316.507812 88.574219 C 316.628906 88.707031 316.730469 88.851562 316.8125 89.007812 C 316.894531 89.160156 316.960938 89.324219 317.003906 89.496094 C 317.046875 89.667969 317.066406 89.84375 317.066406 90.019531 C 317.066406 90.195312 317.046875 90.371094 317.003906 90.542969 C 316.960938 90.714844 316.894531 90.875 316.8125 91.03125 C 316.730469 91.1875 316.628906 91.332031 316.507812 91.460938 C 316.390625 91.59375 316.257812 91.707031 316.109375 91.804688 Z M 320.460938 82.089844 C 320.460938 82.375 320.40625 82.648438 320.296875 82.910156 C 320.1875 83.175781 320.035156 83.40625 319.832031 83.609375 C 319.632812 83.808594 319.398438 83.964844 319.136719 84.074219 C 318.871094 84.183594 318.597656 84.238281 318.3125 84.238281 C 317.875 84.238281 317.476562 84.113281 317.117188 83.867188 L 306.515625 76.773438 C 306.367188 76.671875 306.238281 76.558594 306.121094 76.429688 C 306.003906 76.296875 305.902344 76.15625 305.820312 76 C 305.738281 75.84375 305.675781 75.683594 305.632812 75.511719 C 305.59375 75.34375 305.570312 75.167969 305.570312 74.992188 C 305.570312 74.816406 305.59375 74.644531 305.632812 74.476562 C 305.675781 74.304688 305.738281 74.140625 305.820312 73.988281 C 305.902344 73.832031 306.003906 73.691406 306.121094 73.558594 C 306.238281 73.429688 306.367188 73.3125 306.515625 73.214844 L 317.117188 66.109375 C 317.445312 65.890625 317.808594 65.769531 318.203125 65.75 C 318.601562 65.730469 318.972656 65.8125 319.324219 66 C 319.675781 66.1875 319.953125 66.449219 320.15625 66.789062 C 320.359375 67.132812 320.460938 67.5 320.460938 67.898438 Z M 320.460938 82.089844 " fill-opacity="1" fill-rule="nonzero"/></g><g fill="rgb(13.328552%, 12.548828%, 10.978699%)" fill-opacity="1"><g transform="translate(15.851008, 95.945972)"><g><path d="M 25.234375 0.71875 C 20.929688 0.71875 17.035156 -0.210938 13.546875 -2.078125 C 10.066406 -3.953125 7.332031 -6.550781 5.34375 -9.875 C 3.351562 -13.195312 2.359375 -16.945312 2.359375 -21.125 C 2.359375 -25.3125 3.351562 -29.066406 5.34375 -32.390625 C 7.332031 -35.710938 10.066406 -38.304688 13.546875 -40.171875 C 17.035156 -42.046875 20.953125 -42.984375 25.296875 -42.984375 C 28.960938 -42.984375 32.273438 -42.335938 35.234375 -41.046875 C 38.191406 -39.765625 40.675781 -37.914062 42.6875 -35.5 L 36.40625 -29.703125 C 33.550781 -33.003906 30.007812 -34.65625 25.78125 -34.65625 C 23.164062 -34.65625 20.832031 -34.082031 18.78125 -32.9375 C 16.726562 -31.789062 15.125 -30.191406 13.96875 -28.140625 C 12.820312 -26.085938 12.25 -23.75 12.25 -21.125 C 12.25 -18.507812 12.820312 -16.175781 13.96875 -14.125 C 15.125 -12.070312 16.726562 -10.472656 18.78125 -9.328125 C 20.832031 -8.179688 23.164062 -7.609375 25.78125 -7.609375 C 30.007812 -7.609375 33.550781 -9.28125 36.40625 -12.625 L 42.6875 -6.828125 C 40.675781 -4.367188 38.179688 -2.492188 35.203125 -1.203125 C 32.222656 0.078125 28.898438 0.71875 25.234375 0.71875 Z M 25.234375 0.71875 "/></g></g></g><g fill="rgb(13.328552%, 12.548828%, 10.978699%)" fill-opacity="1"><g transform="translate(65.540885, 95.945972)"><g><path d="M 5.015625 -42.265625 L 14.796875 -42.265625 L 14.796875 0 L 5.015625 0 Z M 5.015625 -42.265625 "/></g></g></g><g fill="rgb(13.328552%, 12.548828%, 10.978699%)" fill-opacity="1"><g transform="translate(90.778429, 95.945972)"><g><path d="M 43.765625 -42.265625 L 43.765625 0 L 35.734375 0 L 14.671875 -25.65625 L 14.671875 0 L 5.015625 0 L 5.015625 -42.265625 L 13.09375 -42.265625 L 34.109375 -16.609375 L 34.109375 -42.265625 Z M 43.765625 -42.265625 "/></g></g></g><g fill="rgb(13.328552%, 12.548828%, 10.978699%)" fill-opacity="1"><g transform="translate(144.996512, 95.945972)"><g><path d="M 37.734375 -7.84375 L 37.734375 0 L 5.015625 0 L 5.015625 -42.265625 L 36.953125 -42.265625 L 36.953125 -34.40625 L 14.734375 -34.40625 L 14.734375 -25.234375 L 34.359375 -25.234375 L 34.359375 -17.625 L 14.734375 -17.625 L 14.734375 -7.84375 Z M 37.734375 -7.84375 "/></g></g></g><g fill="rgb(13.328552%, 12.548828%, 10.978699%)" fill-opacity="1"><g transform="translate(190.943076, 95.945972)"><g><path d="M 43.46875 0 L 43.40625 -25.359375 L 30.96875 -4.46875 L 26.5625 -4.46875 L 14.1875 -24.8125 L 14.1875 0 L 5.015625 0 L 5.015625 -42.265625 L 13.09375 -42.265625 L 28.921875 -16 L 44.5 -42.265625 L 52.53125 -42.265625 L 52.640625 0 Z M 43.46875 0 "/></g></g></g><g fill="rgb(13.328552%, 12.548828%, 10.978699%)" fill-opacity="1"><g transform="translate(254.036478, 95.945972)"><g><path d="M 32.84375 -9.0625 L 13.21875 -9.0625 L 9.484375 0 L -0.546875 0 L 18.296875 -42.265625 L 27.953125 -42.265625 L 46.84375 0 L 36.59375 0 Z M 29.765625 -16.484375 L 23.0625 -32.65625 L 16.359375 -16.484375 Z M 29.765625 -16.484375 "/></g></g></g><g fill="rgb(13.328552%, 12.548828%, 10.978699%)" fill-opacity="1"><g transform="translate(305.718753, 95.945972)"><g><path d="M 5.015625 -42.265625 L 14.796875 -42.265625 L 14.796875 -7.96875 L 35.984375 -7.96875 L 35.984375 0 L 5.015625 0 Z M 5.015625 -42.265625 "/></g></g></g><g fill="rgb(13.328552%, 12.548828%, 10.978699%)" fill-opacity="1"><g transform="translate(347.620095, 95.945972)"><g><path d="M 5.015625 -42.265625 L 14.796875 -42.265625 L 14.796875 0 L 5.015625 0 Z M 5.015625 -42.265625 "/></g></g></g><g fill="rgb(13.328552%, 12.548828%, 10.978699%)" fill-opacity="1"><g transform="translate(372.857627, 95.945972)"><g><path d="M 39.25 -7.96875 L 39.25 0 L 2.296875 0 L 2.296875 -6.34375 L 25.484375 -34.296875 L 2.78125 -34.296875 L 2.78125 -42.265625 L 38.34375 -42.265625 L 38.34375 -35.921875 L 15.21875 -7.96875 Z M 39.25 -7.96875 "/></g></g></g><g fill="rgb(13.328552%, 12.548828%, 10.978699%)" fill-opacity="1"><g transform="translate(418.804177, 95.945972)"><g><path d="M 37.734375 -7.84375 L 37.734375 0 L 5.015625 0 L 5.015625 -42.265625 L 36.953125 -42.265625 L 36.953125 -34.40625 L 14.734375 -34.40625 L 14.734375 -25.234375 L 34.359375 -25.234375 L 34.359375 -17.625 L 14.734375 -17.625 L 14.734375 -7.84375 Z M 37.734375 -7.84375 "/></g></g></g><g fill="rgb(13.328552%, 12.548828%, 10.978699%)" fill-opacity="1"><g transform="translate(464.750727, 95.945972)"><g><path d="M 31.9375 0 L 23.78125 -11.765625 L 14.796875 -11.765625 L 14.796875 0 L 5.015625 0 L 5.015625 -42.265625 L 23.3125 -42.265625 C 27.050781 -42.265625 30.296875 -41.640625 33.046875 -40.390625 C 35.804688 -39.140625 37.929688 -37.367188 39.421875 -35.078125 C 40.910156 -32.785156 41.65625 -30.066406 41.65625 -26.921875 C 41.65625 -23.785156 40.898438 -21.078125 39.390625 -18.796875 C 37.878906 -16.523438 35.738281 -14.785156 32.96875 -13.578125 L 42.4375 0 Z M 31.75 -26.921875 C 31.75 -29.296875 30.984375 -31.117188 29.453125 -32.390625 C 27.929688 -33.660156 25.703125 -34.296875 22.765625 -34.296875 L 14.796875 -34.296875 L 14.796875 -19.5625 L 22.765625 -19.5625 C 25.703125 -19.5625 27.929688 -20.203125 29.453125 -21.484375 C 30.984375 -22.773438 31.75 -24.585938 31.75 -26.921875 Z M 31.75 -26.921875 "/></g></g></g></svg>