<svg xmlns="http://www.w3.org/2000/svg" xmlns:xlink="http://www.w3.org/1999/xlink" width="700" zoomAndPan="magnify" viewBox="0 0 525 149.999998" height="200" preserveAspectRatio="xMidYMid meet" version="1.0"><defs><g/><clipPath id="id1"><path d="M 112.191406 40.113281 L 522.441406 40.113281 L 522.441406 109.863281 L 112.191406 109.863281 Z M 112.191406 40.113281 " clip-rule="nonzero"/></clipPath><clipPath id="id2"><path d="M 5.023438 21 L 307.273438 21 L 307.273438 128 L 5.023438 128 Z M 5.023438 21 " clip-rule="nonzero"/></clipPath></defs><g clip-path="url(#id1)"><path fill="rgb(95.689392%, 95.689392%, 95.689392%)" d="M 147.277344 40.113281 L 487.351562 40.113281 C 488.496094 40.113281 489.632812 40.167969 490.769531 40.28125 C 491.90625 40.394531 493.035156 40.558594 494.15625 40.78125 C 495.277344 41.003906 496.382812 41.28125 497.476562 41.613281 C 498.566406 41.945312 499.640625 42.332031 500.695312 42.765625 C 501.753906 43.203125 502.785156 43.691406 503.789062 44.230469 C 504.796875 44.769531 505.777344 45.355469 506.726562 45.988281 C 507.675781 46.625 508.589844 47.304688 509.472656 48.027344 C 510.355469 48.753906 511.203125 49.519531 512.011719 50.328125 C 512.816406 51.136719 513.582031 51.980469 514.308594 52.863281 C 515.03125 53.746094 515.710938 54.664062 516.347656 55.613281 C 516.980469 56.5625 517.566406 57.539062 518.105469 58.546875 C 518.644531 59.554688 519.132812 60.585938 519.570312 61.640625 C 520.007812 62.695312 520.390625 63.769531 520.722656 64.863281 C 521.054688 65.957031 521.332031 67.0625 521.554688 68.183594 C 521.777344 69.304688 521.945312 70.433594 522.054688 71.570312 C 522.167969 72.707031 522.222656 73.84375 522.222656 74.988281 C 522.222656 76.128906 522.167969 77.269531 522.054688 78.40625 C 521.945312 79.542969 521.777344 80.671875 521.554688 81.789062 C 521.332031 82.910156 521.054688 84.019531 520.722656 85.109375 C 520.390625 86.203125 520.007812 87.277344 519.570312 88.332031 C 519.132812 89.386719 518.644531 90.417969 518.105469 91.425781 C 517.566406 92.433594 516.980469 93.414062 516.347656 94.363281 C 515.710938 95.3125 515.03125 96.226562 514.308594 97.109375 C 513.582031 97.992188 512.816406 98.839844 512.011719 99.648438 C 511.203125 100.453125 510.355469 101.222656 509.472656 101.945312 C 508.589844 102.667969 507.675781 103.347656 506.726562 103.984375 C 505.777344 104.617188 504.796875 105.203125 503.789062 105.742188 C 502.785156 106.28125 501.753906 106.769531 500.695312 107.207031 C 499.640625 107.644531 498.566406 108.027344 497.476562 108.359375 C 496.382812 108.691406 495.277344 108.96875 494.15625 109.191406 C 493.035156 109.414062 491.90625 109.582031 490.769531 109.695312 C 489.632812 109.804688 488.496094 109.863281 487.351562 109.863281 L 147.277344 109.863281 C 146.136719 109.863281 144.996094 109.804688 143.859375 109.695312 C 142.722656 109.582031 141.59375 109.414062 140.472656 109.191406 C 139.355469 108.96875 138.246094 108.691406 137.15625 108.359375 C 136.0625 108.027344 134.988281 107.644531 133.933594 107.207031 C 132.878906 106.769531 131.847656 106.28125 130.839844 105.742188 C 129.832031 105.203125 128.851562 104.617188 127.902344 103.984375 C 126.953125 103.347656 126.039062 102.667969 125.15625 101.945312 C 124.273438 101.222656 123.425781 100.453125 122.621094 99.648438 C 121.8125 98.839844 121.046875 97.992188 120.320312 97.109375 C 119.597656 96.226562 118.917969 95.3125 118.28125 94.363281 C 117.648438 93.414062 117.0625 92.433594 116.523438 91.425781 C 115.984375 90.417969 115.496094 89.386719 115.058594 88.332031 C 114.625 87.277344 114.238281 86.203125 113.90625 85.109375 C 113.574219 84.019531 113.300781 82.910156 113.074219 81.789062 C 112.851562 80.671875 112.6875 79.542969 112.574219 78.40625 C 112.460938 77.269531 112.40625 76.128906 112.40625 74.988281 C 112.40625 73.84375 112.460938 72.707031 112.574219 71.570312 C 112.6875 70.433594 112.851562 69.304688 113.074219 68.183594 C 113.300781 67.0625 113.574219 65.957031 113.90625 64.863281 C 114.238281 63.769531 114.625 62.695312 115.058594 61.640625 C 115.496094 60.585938 115.984375 59.554688 116.523438 58.546875 C 117.0625 57.539062 117.648438 56.5625 118.28125 55.613281 C 118.917969 54.664062 119.597656 53.746094 120.320312 52.863281 C 121.046875 51.980469 121.8125 51.136719 122.621094 50.328125 C 123.425781 49.519531 124.273438 48.753906 125.15625 48.027344 C 126.039062 47.304688 126.953125 46.625 127.902344 45.988281 C 128.851562 45.355469 129.832031 44.769531 130.839844 44.230469 C 131.847656 43.691406 132.878906 43.203125 133.933594 42.765625 C 134.988281 42.332031 136.0625 41.945312 137.15625 41.613281 C 138.246094 41.28125 139.355469 41.003906 140.472656 40.78125 C 141.59375 40.558594 142.722656 40.394531 143.859375 40.28125 C 144.996094 40.167969 146.136719 40.113281 147.277344 40.113281 Z M 147.277344 40.113281 " fill-opacity="1" fill-rule="nonzero"/></g><g clip-path="url(#id2)"><path fill="rgb(100%, 26.669312%, 22.749329%)" d="M 307.273438 74.480469 C 307.273438 103.699219 283.601562 127.277344 254.265625 127.277344 L 58.027344 127.277344 C 28.691406 127.476562 5.023438 103.699219 5.023438 74.480469 C 5.023438 45.261719 28.691406 21.6875 58.027344 21.6875 L 254.066406 21.6875 C 283.601562 21.6875 307.273438 45.261719 307.273438 74.480469 Z M 307.273438 74.480469 " fill-opacity="1" fill-rule="nonzero"/></g><g fill="rgb(100%, 100%, 100%)" fill-opacity="1"><g transform="translate(15.877241, 96.858047)"><g><path d="M 25.234375 0.71875 C 20.929688 0.71875 17.035156 -0.210938 13.546875 -2.078125 C 10.066406 -3.953125 7.332031 -6.550781 5.34375 -9.875 C 3.351562 -13.195312 2.359375 -16.945312 2.359375 -21.125 C 2.359375 -25.3125 3.351562 -29.066406 5.34375 -32.390625 C 7.332031 -35.710938 10.066406 -38.304688 13.546875 -40.171875 C 17.035156 -42.046875 20.953125 -42.984375 25.296875 -42.984375 C 28.960938 -42.984375 32.273438 -42.335938 35.234375 -41.046875 C 38.191406 -39.765625 40.675781 -37.914062 42.6875 -35.5 L 36.40625 -29.703125 C 33.550781 -33.003906 30.007812 -34.65625 25.78125 -34.65625 C 23.164062 -34.65625 20.832031 -34.082031 18.78125 -32.9375 C 16.726562 -31.789062 15.125 -30.191406 13.96875 -28.140625 C 12.820312 -26.085938 12.25 -23.75 12.25 -21.125 C 12.25 -18.507812 12.820312 -16.175781 13.96875 -14.125 C 15.125 -12.070312 16.726562 -10.472656 18.78125 -9.328125 C 20.832031 -8.179688 23.164062 -7.609375 25.78125 -7.609375 C 30.007812 -7.609375 33.550781 -9.28125 36.40625 -12.625 L 42.6875 -6.828125 C 40.675781 -4.367188 38.179688 -2.492188 35.203125 -1.203125 C 32.222656 0.078125 28.898438 0.71875 25.234375 0.71875 Z M 25.234375 0.71875 "/></g></g></g><g fill="rgb(100%, 100%, 100%)" fill-opacity="1"><g transform="translate(65.56622, 96.858047)"><g><path d="M 5.015625 -42.265625 L 14.796875 -42.265625 L 14.796875 0 L 5.015625 0 Z M 5.015625 -42.265625 "/></g></g></g><g fill="rgb(100%, 100%, 100%)" fill-opacity="1"><g transform="translate(90.803353, 96.858047)"><g><path d="M 43.765625 -42.265625 L 43.765625 0 L 35.734375 0 L 14.671875 -25.65625 L 14.671875 0 L 5.015625 0 L 5.015625 -42.265625 L 13.09375 -42.265625 L 34.109375 -16.609375 L 34.109375 -42.265625 Z M 43.765625 -42.265625 "/></g></g></g><g fill="rgb(100%, 100%, 100%)" fill-opacity="1"><g transform="translate(145.020444, 96.858047)"><g><path d="M 37.734375 -7.84375 L 37.734375 0 L 5.015625 0 L 5.015625 -42.265625 L 36.953125 -42.265625 L 36.953125 -34.40625 L 14.734375 -34.40625 L 14.734375 -25.234375 L 34.359375 -25.234375 L 34.359375 -17.625 L 14.734375 -17.625 L 14.734375 -7.84375 Z M 37.734375 -7.84375 "/></g></g></g><g fill="rgb(100%, 100%, 100%)" fill-opacity="1"><g transform="translate(190.96617, 96.858047)"><g><path d="M 43.46875 0 L 43.40625 -25.359375 L 30.96875 -4.46875 L 26.5625 -4.46875 L 14.1875 -24.8125 L 14.1875 0 L 5.015625 0 L 5.015625 -42.265625 L 13.09375 -42.265625 L 28.921875 -16 L 44.5 -42.265625 L 52.53125 -42.265625 L 52.640625 0 Z M 43.46875 0 "/></g></g></g><g fill="rgb(100%, 100%, 100%)" fill-opacity="1"><g transform="translate(254.058371, 96.858047)"><g><path d="M 32.84375 -9.0625 L 13.21875 -9.0625 L 9.484375 0 L -0.546875 0 L 18.296875 -42.265625 L 27.953125 -42.265625 L 46.84375 0 L 36.59375 0 Z M 29.765625 -16.484375 L 23.0625 -32.65625 L 16.359375 -16.484375 Z M 29.765625 -16.484375 "/></g></g></g><g fill="rgb(13.328552%, 12.548828%, 10.978699%)" fill-opacity="1"><g transform="translate(305.72879, 96.858047)"><g><path d="M 5.015625 -42.265625 L 14.796875 -42.265625 L 14.796875 -7.96875 L 35.984375 -7.96875 L 35.984375 0 L 5.015625 0 Z M 5.015625 -42.265625 "/></g></g></g><g fill="rgb(13.328552%, 12.548828%, 10.978699%)" fill-opacity="1"><g transform="translate(347.629398, 96.858047)"><g><path d="M 5.015625 -42.265625 L 14.796875 -42.265625 L 14.796875 0 L 5.015625 0 Z M 5.015625 -42.265625 "/></g></g></g><g fill="rgb(13.328552%, 12.548828%, 10.978699%)" fill-opacity="1"><g transform="translate(372.866529, 96.858047)"><g><path d="M 39.25 -7.96875 L 39.25 0 L 2.296875 0 L 2.296875 -6.34375 L 25.484375 -34.296875 L 2.78125 -34.296875 L 2.78125 -42.265625 L 38.34375 -42.265625 L 38.34375 -35.921875 L 15.21875 -7.96875 Z M 39.25 -7.96875 "/></g></g></g><g fill="rgb(13.328552%, 12.548828%, 10.978699%)" fill-opacity="1"><g transform="translate(418.81226, 96.858047)"><g><path d="M 37.734375 -7.84375 L 37.734375 0 L 5.015625 0 L 5.015625 -42.265625 L 36.953125 -42.265625 L 36.953125 -34.40625 L 14.734375 -34.40625 L 14.734375 -25.234375 L 34.359375 -25.234375 L 34.359375 -17.625 L 14.734375 -17.625 L 14.734375 -7.84375 Z M 37.734375 -7.84375 "/></g></g></g><g fill="rgb(13.328552%, 12.548828%, 10.978699%)" fill-opacity="1"><g transform="translate(464.757986, 96.858047)"><g><path d="M 31.9375 0 L 23.78125 -11.765625 L 14.796875 -11.765625 L 14.796875 0 L 5.015625 0 L 5.015625 -42.265625 L 23.3125 -42.265625 C 27.050781 -42.265625 30.296875 -41.640625 33.046875 -40.390625 C 35.804688 -39.140625 37.929688 -37.367188 39.421875 -35.078125 C 40.910156 -32.785156 41.65625 -30.066406 41.65625 -26.921875 C 41.65625 -23.785156 40.898438 -21.078125 39.390625 -18.796875 C 37.878906 -16.523438 35.738281 -14.785156 32.96875 -13.578125 L 42.4375 0 Z M 31.75 -26.921875 C 31.75 -29.296875 30.984375 -31.117188 29.453125 -32.390625 C 27.929688 -33.660156 25.703125 -34.296875 22.765625 -34.296875 L 14.796875 -34.296875 L 14.796875 -19.5625 L 22.765625 -19.5625 C 25.703125 -19.5625 27.929688 -20.203125 29.453125 -21.484375 C 30.984375 -22.773438 31.75 -24.585938 31.75 -26.921875 Z M 31.75 -26.921875 "/></g></g></g></svg>