<svg xmlns="http://www.w3.org/2000/svg" xmlns:xlink="http://www.w3.org/1999/xlink" width="100" zoomAndPan="magnify" viewBox="0 0 75 74.999997" height="100" preserveAspectRatio="xMidYMid meet" version="1.0"><defs><clipPath id="id1"><path d="M 19.5 18.992188 L 56.25 18.992188 L 56.25 55.742188 L 19.5 55.742188 Z M 19.5 18.992188 " clip-rule="nonzero"/></clipPath></defs><rect x="-7.5" width="90" fill="rgb(37.249756%, 36.468506%, 36.079407%)" y="-7.5" height="89.999996" fill-opacity="1"/><g clip-path="url(#id1)"><path fill="rgb(100%, 100%, 100%)" d="M 56.25 51.65625 L 56.25 23.074219 C 56.25 20.816406 54.421875 18.992188 52.167969 18.992188 L 23.582031 18.992188 C 21.328125 18.992188 19.5 20.816406 19.5 23.074219 L 19.5 51.65625 C 19.5 53.914062 21.328125 55.742188 23.582031 55.742188 L 52.167969 55.742188 C 54.421875 55.742188 56.25 53.914062 56.25 51.65625 Z M 30.730469 40.429688 L 35.832031 46.5625 L 42.980469 37.367188 L 52.167969 49.617188 L 23.582031 49.617188 Z M 30.730469 40.429688 " fill-opacity="1" fill-rule="nonzero"/></g></svg>