<svg xmlns="http://www.w3.org/2000/svg" xmlns:xlink="http://www.w3.org/1999/xlink" width="1000" zoomAndPan="magnify" viewBox="0 0 750 749.999995" height="1000" preserveAspectRatio="xMidYMid meet" version="1.0"><defs><clipPath id="id1"><path d="M 7.890625 15 L 742.140625 15 L 742.140625 739 L 7.890625 739 Z M 7.890625 15 " clip-rule="nonzero"/></clipPath></defs><g clip-path="url(#id1)"><path fill="rgb(86.268616%, 7.839966%, 23.529053%)" d="M 375.015625 15.566406 C 172.269531 15.566406 7.890625 179.945312 7.890625 382.691406 C 7.890625 554.71875 126.347656 698.660156 286.046875 738.496094 C 284.335938 733.539062 283.234375 727.785156 283.234375 720.660156 L 283.234375 657.910156 C 268.332031 657.910156 243.371094 657.910156 237.097656 657.910156 C 211.980469 657.910156 189.648438 647.109375 178.816406 627.042969 C 166.792969 604.738281 164.710938 570.625 134.914062 549.761719 C 126.074219 542.816406 132.804688 534.894531 142.992188 535.964844 C 161.804688 541.289062 177.410156 554.199219 192.09375 573.351562 C 206.71875 592.53125 213.601562 596.875 240.921875 596.875 C 254.167969 596.875 273.992188 596.113281 292.65625 593.175781 C 302.691406 567.691406 320.039062 544.222656 341.238281 533.148438 C 218.984375 520.574219 160.644531 459.753906 160.644531 377.183594 C 160.644531 341.632812 175.789062 307.246094 201.515625 278.273438 C 193.074219 249.515625 182.457031 190.867188 204.761719 168.535156 C 259.765625 168.535156 293.023438 204.207031 301.007812 213.84375 C 328.417969 204.449219 358.523438 199.128906 390.15625 199.128906 C 421.851562 199.128906 452.078125 204.449219 479.554688 213.902344 C 487.445312 204.328125 520.730469 168.535156 575.863281 168.535156 C 598.257812 190.898438 587.519531 249.789062 578.984375 278.488281 C 604.558594 307.398438 619.609375 341.695312 619.609375 377.183594 C 619.609375 459.695312 561.359375 520.484375 439.292969 533.117188 C 472.882812 550.648438 497.390625 599.90625 497.390625 637.015625 L 497.390625 720.660156 C 497.390625 723.839844 496.683594 726.136719 496.316406 728.859375 C 639.375 678.714844 742.140625 542.878906 742.140625 382.691406 C 742.140625 179.945312 577.757812 15.566406 375.015625 15.566406 Z M 375.015625 15.566406 " fill-opacity="1" fill-rule="nonzero"/></g></svg>