<svg xmlns="http://www.w3.org/2000/svg" xmlns:xlink="http://www.w3.org/1999/xlink" width="500" zoomAndPan="magnify" viewBox="0 0 375 225" height="300" preserveAspectRatio="xMidYMid meet" version="1.0"><defs><clipPath id="id1"><path d="M 75 3.078125 L 299 3.078125 L 299 222 L 75 222 Z M 75 3.078125 " clip-rule="nonzero"/></clipPath></defs><g clip-path="url(#id1)"><path fill="rgb(14.898682%, 19.60907%, 21.958923%)" d="M 222.773438 220.863281 C 224.84375 220.171875 226.894531 219.417969 228.921875 218.605469 C 230.949219 217.792969 232.953125 216.921875 234.929688 215.992188 C 236.90625 215.0625 238.851562 214.074219 240.769531 213.03125 C 242.6875 211.984375 244.574219 210.882812 246.429688 209.726562 C 248.28125 208.570312 250.101562 207.363281 251.882812 206.101562 C 253.667969 204.835938 255.410156 203.523438 257.117188 202.15625 C 258.824219 200.792969 260.488281 199.375 262.109375 197.914062 C 263.734375 196.449219 265.3125 194.941406 266.847656 193.382812 C 268.378906 191.828125 269.867188 190.226562 271.308594 188.582031 C 272.75 186.941406 274.140625 185.253906 275.480469 183.527344 C 276.820312 181.804688 278.113281 180.039062 279.351562 178.238281 C 280.585938 176.4375 281.773438 174.601562 282.902344 172.730469 C 284.03125 170.859375 285.105469 168.957031 286.125 167.019531 C 287.144531 165.085938 288.105469 163.125 289.007812 161.132812 C 289.910156 159.140625 290.753906 157.125 291.539062 155.085938 C 292.324219 153.042969 293.050781 150.984375 293.714844 148.898438 C 294.378906 146.816406 294.980469 144.714844 295.519531 142.597656 C 296.0625 140.476562 296.539062 138.34375 296.957031 136.199219 C 297.371094 134.050781 297.722656 131.894531 298.011719 129.726562 C 298.300781 127.558594 298.527344 125.386719 298.6875 123.203125 C 298.847656 121.023438 298.945312 118.839844 298.980469 116.652344 C 299.011719 114.46875 298.980469 112.28125 298.886719 110.097656 C 298.792969 107.914062 298.632812 105.730469 298.410156 103.558594 C 298.1875 101.382812 297.902344 99.214844 297.550781 97.054688 C 297.199219 94.898438 296.789062 92.75 296.3125 90.617188 C 295.835938 88.484375 295.296875 86.363281 294.695312 84.261719 C 294.097656 82.160156 293.433594 80.078125 292.710938 78.011719 C 291.988281 75.949219 291.207031 73.910156 290.363281 71.890625 C 289.523438 69.875 288.621094 67.882812 287.660156 65.917969 C 286.703125 63.953125 285.6875 62.019531 284.613281 60.113281 C 283.542969 58.210938 282.414062 56.339844 281.230469 54.5 C 280.046875 52.660156 278.8125 50.859375 277.523438 49.09375 C 276.234375 47.328125 274.898438 45.601562 273.507812 43.914062 C 272.117188 42.226562 270.679688 40.582031 269.195312 38.980469 C 267.707031 37.378906 266.175781 35.820312 264.597656 34.308594 C 263.019531 32.796875 261.398438 31.332031 259.734375 29.914062 C 258.074219 28.496094 256.367188 27.132812 254.625 25.8125 C 252.882812 24.496094 251.101562 23.234375 249.28125 22.019531 C 247.464844 20.808594 245.613281 19.652344 243.726562 18.550781 C 241.839844 17.445312 239.925781 16.398438 237.976562 15.410156 C 236.03125 14.417969 234.054688 13.488281 232.054688 12.613281 C 230.050781 11.738281 228.027344 10.925781 225.976562 10.167969 C 223.925781 9.414062 221.855469 8.722656 219.765625 8.085938 C 217.675781 7.453125 215.566406 6.882812 213.445312 6.375 C 211.320312 5.867188 209.183594 5.417969 207.03125 5.035156 C 204.882812 4.652344 202.722656 4.332031 200.554688 4.078125 C 198.382812 3.820312 196.210938 3.628906 194.03125 3.5 C 191.847656 3.371094 189.667969 3.304688 187.484375 3.304688 C 185.300781 3.304688 183.117188 3.371094 180.9375 3.5 C 178.757812 3.628906 176.582031 3.820312 174.414062 4.078125 C 172.242188 4.332031 170.085938 4.652344 167.933594 5.035156 C 165.785156 5.417969 163.648438 5.867188 161.523438 6.375 C 159.398438 6.882812 157.292969 7.453125 155.199219 8.085938 C 153.109375 8.722656 151.039062 9.414062 148.992188 10.167969 C 146.941406 10.925781 144.914062 11.738281 142.914062 12.613281 C 140.910156 13.488281 138.9375 14.417969 136.988281 15.410156 C 135.042969 16.398438 133.125 17.445312 131.238281 18.550781 C 129.351562 19.652344 127.5 20.808594 125.683594 22.019531 C 123.867188 23.234375 122.085938 24.496094 120.339844 25.8125 C 118.597656 27.132812 116.894531 28.496094 115.230469 29.914062 C 113.566406 31.332031 111.945312 32.796875 110.367188 34.308594 C 108.789062 35.820312 107.257812 37.378906 105.773438 38.980469 C 104.285156 40.582031 102.847656 42.226562 101.460938 43.914062 C 100.070312 45.601562 98.730469 47.328125 97.441406 49.09375 C 96.152344 50.859375 94.917969 52.660156 93.734375 54.5 C 92.554688 56.339844 91.425781 58.210938 90.351562 60.113281 C 89.28125 62.019531 88.265625 63.953125 87.304688 65.917969 C 86.34375 67.882812 85.445312 69.875 84.601562 71.890625 C 83.757812 73.910156 82.976562 75.949219 82.253906 78.011719 C 81.53125 80.078125 80.871094 82.160156 80.269531 84.261719 C 79.667969 86.363281 79.132812 88.484375 78.65625 90.617188 C 78.179688 92.75 77.765625 94.898438 77.417969 97.054688 C 77.066406 99.214844 76.78125 101.382812 76.554688 103.558594 C 76.332031 105.734375 76.175781 107.914062 76.078125 110.097656 C 75.984375 112.28125 75.953125 114.46875 75.988281 116.652344 C 76.019531 118.839844 76.117188 121.023438 76.277344 123.203125 C 76.441406 125.386719 76.664062 127.558594 76.953125 129.726562 C 77.242188 131.894531 77.59375 134.050781 78.011719 136.199219 C 78.425781 138.34375 78.90625 140.476562 79.445312 142.597656 C 79.984375 144.714844 80.589844 146.816406 81.253906 148.898438 C 81.917969 150.984375 82.640625 153.042969 83.425781 155.085938 C 84.210938 157.125 85.054688 159.140625 85.957031 161.132812 C 86.863281 163.125 87.824219 165.085938 88.839844 167.019531 C 89.859375 168.957031 90.933594 170.859375 92.066406 172.730469 C 93.195312 174.601562 94.378906 176.4375 95.617188 178.238281 C 96.855469 180.039062 98.144531 181.804688 99.484375 183.527344 C 100.828125 185.253906 102.21875 186.941406 103.660156 188.582031 C 105.097656 190.226562 106.585938 191.828125 108.121094 193.382812 C 109.65625 194.941406 111.234375 196.449219 112.855469 197.914062 C 114.480469 199.375 116.144531 200.792969 117.847656 202.15625 C 119.554688 203.523438 121.300781 204.835938 123.082031 206.101562 C 124.863281 207.363281 126.683594 208.570312 128.539062 209.726562 C 130.390625 210.882812 132.277344 211.984375 134.195312 213.03125 C 136.113281 214.074219 138.0625 215.0625 140.039062 215.992188 C 142.015625 216.921875 144.015625 217.792969 146.042969 218.605469 C 148.070312 219.417969 150.121094 220.171875 152.195312 220.863281 C 157.789062 221.890625 159.792969 218.4375 159.792969 215.449219 C 159.792969 213.441406 159.792969 208.960938 159.792969 202.894531 C 159.785156 202.496094 159.738281 202.105469 159.648438 201.71875 C 159.558594 201.335938 159.429688 200.960938 159.265625 200.601562 C 159.097656 200.242188 158.894531 199.90625 158.65625 199.589844 C 158.417969 199.273438 158.148438 198.984375 157.847656 198.722656 C 157.550781 198.464844 157.226562 198.238281 156.882812 198.046875 C 156.535156 197.855469 156.171875 197.703125 155.792969 197.585938 C 155.414062 197.472656 155.027344 197.398438 154.632812 197.363281 C 154.238281 197.328125 153.84375 197.335938 153.453125 197.386719 C 127.8125 200.140625 122.171875 181.328125 122.171875 181.328125 C 117.089844 168.402344 109.773438 164.945312 109.773438 164.945312 C 99.65625 157.992188 110.515625 158.132812 110.515625 158.132812 C 112.289062 158.378906 114.007812 158.820312 115.675781 159.460938 C 117.34375 160.101562 118.917969 160.925781 120.394531 161.929688 C 121.875 162.933594 123.222656 164.089844 124.433594 165.40625 C 125.648438 166.71875 126.695312 168.152344 127.578125 169.707031 C 127.90625 170.34375 128.265625 170.960938 128.652344 171.5625 C 129.035156 172.164062 129.449219 172.75 129.890625 173.3125 C 130.332031 173.875 130.796875 174.417969 131.289062 174.9375 C 131.78125 175.457031 132.292969 175.949219 132.832031 176.421875 C 133.367188 176.894531 133.925781 177.339844 134.507812 177.757812 C 135.085938 178.175781 135.683594 178.566406 136.296875 178.929688 C 136.914062 179.292969 137.546875 179.625 138.191406 179.929688 C 138.839844 180.234375 139.5 180.507812 140.171875 180.75 C 140.84375 180.992188 141.527344 181.199219 142.21875 181.378906 C 142.910156 181.554688 143.609375 181.703125 144.316406 181.8125 C 145.019531 181.925781 145.730469 182.003906 146.441406 182.050781 C 147.15625 182.097656 147.871094 182.109375 148.582031 182.089844 C 149.296875 182.066406 150.007812 182.011719 150.71875 181.925781 C 151.425781 181.835938 152.128906 181.71875 152.828125 181.5625 C 153.527344 181.410156 154.214844 181.222656 154.894531 181.003906 C 155.578125 180.785156 156.246094 180.539062 156.902344 180.257812 C 157.832031 179.921875 158.621094 179.378906 159.265625 178.628906 C 159.914062 177.882812 160.339844 177.023438 160.539062 176.054688 C 160.945312 174.257812 161.519531 172.515625 162.261719 170.828125 C 162.453125 170.4375 162.597656 170.027344 162.695312 169.605469 C 162.789062 169.179688 162.839844 168.75 162.839844 168.3125 C 162.839844 167.878906 162.789062 167.449219 162.691406 167.023438 C 162.59375 166.601562 162.449219 166.191406 162.257812 165.800781 C 162.066406 165.410156 161.832031 165.046875 161.558594 164.707031 C 161.285156 164.367188 160.976562 164.066406 160.636719 163.796875 C 160.292969 163.527344 159.925781 163.304688 159.53125 163.117188 C 159.136719 162.933594 158.726562 162.796875 158.300781 162.707031 C 136.53125 158.457031 116.34375 146.511719 116.34375 108.65625 C 116.277344 104.035156 116.929688 99.523438 118.300781 95.109375 C 119.671875 90.699219 121.691406 86.609375 124.363281 82.84375 C 125.351562 81.503906 126.023438 80.023438 126.371094 78.394531 C 126.722656 76.765625 126.71875 75.136719 126.367188 73.507812 C 125.316406 68.21875 125.316406 62.929688 126.367188 57.640625 C 126.507812 56.9375 126.714844 56.257812 126.996094 55.597656 C 127.277344 54.941406 127.625 54.320312 128.035156 53.734375 C 128.445312 53.148438 128.910156 52.609375 129.433594 52.121094 C 129.957031 51.636719 130.523438 51.207031 131.136719 50.835938 C 131.75 50.46875 132.394531 50.167969 133.070312 49.933594 C 133.746094 49.699219 134.4375 49.535156 135.144531 49.445312 C 135.855469 49.355469 136.566406 49.339844 137.277344 49.402344 C 137.992188 49.460938 138.6875 49.59375 139.375 49.796875 C 145.101562 51.675781 150.496094 54.257812 155.550781 57.546875 C 156.910156 58.363281 158.371094 58.890625 159.933594 59.132812 C 161.5 59.375 163.054688 59.3125 164.59375 58.945312 C 172.152344 57.257812 179.808594 56.414062 187.554688 56.414062 C 195.300781 56.414062 202.953125 57.257812 210.511719 58.945312 C 212.054688 59.3125 213.605469 59.375 215.171875 59.132812 C 216.738281 58.890625 218.199219 58.363281 219.554688 57.546875 C 224.476562 54.355469 229.710938 51.816406 235.265625 49.9375 C 235.625 49.828125 235.988281 49.738281 236.359375 49.667969 C 236.726562 49.597656 237.101562 49.546875 237.472656 49.519531 C 237.847656 49.488281 238.222656 49.476562 238.597656 49.488281 C 238.976562 49.496094 239.347656 49.527344 239.722656 49.578125 C 240.09375 49.628906 240.460938 49.699219 240.828125 49.789062 C 241.191406 49.878906 241.550781 49.988281 241.902344 50.117188 C 242.257812 50.246094 242.601562 50.390625 242.941406 50.558594 C 243.277344 50.722656 243.605469 50.90625 243.921875 51.109375 C 244.238281 51.308594 244.546875 51.527344 244.839844 51.761719 C 245.132812 51.992188 245.414062 52.242188 245.683594 52.507812 C 245.949219 52.769531 246.203125 53.046875 246.441406 53.339844 C 246.679688 53.632812 246.898438 53.933594 247.105469 54.25 C 247.308594 54.566406 247.496094 54.890625 247.667969 55.226562 C 247.839844 55.5625 247.988281 55.902344 248.125 56.253906 C 248.257812 56.605469 248.371094 56.964844 248.464844 57.328125 C 248.5625 57.691406 248.636719 58.0625 248.691406 58.433594 C 249.664062 63.503906 249.664062 68.578125 248.691406 73.648438 C 248.339844 75.277344 248.339844 76.90625 248.6875 78.535156 C 249.039062 80.160156 249.707031 81.644531 250.695312 82.984375 C 253.367188 86.75 255.390625 90.839844 256.757812 95.25 C 258.128906 99.660156 258.78125 104.175781 258.714844 108.796875 C 258.714844 146.742188 238.484375 158.597656 216.757812 162.800781 C 216.335938 162.878906 215.929688 163.007812 215.539062 163.179688 C 215.144531 163.355469 214.777344 163.570312 214.433594 163.828125 C 214.089844 164.085938 213.78125 164.378906 213.503906 164.707031 C 213.226562 165.035156 212.988281 165.390625 212.792969 165.773438 C 212.597656 166.15625 212.449219 166.558594 212.34375 166.972656 C 212.238281 167.390625 212.183594 167.8125 212.175781 168.242188 C 212.167969 168.671875 212.207031 169.097656 212.296875 169.519531 C 212.386719 169.941406 212.523438 170.34375 212.703125 170.734375 C 214.648438 175.199219 215.582031 179.867188 215.5 184.738281 L 215.5 215.496094 C 215.5 215.496094 217.085938 221.796875 222.773438 220.863281 Z M 222.773438 220.863281 " fill-opacity="1" fill-rule="nonzero"/></g></svg>