<svg xmlns="http://www.w3.org/2000/svg" xmlns:xlink="http://www.w3.org/1999/xlink" width="500" zoomAndPan="magnify" viewBox="0 0 375 225" height="300" preserveAspectRatio="xMidYMid meet" version="1.0"><defs><clipPath id="id1"><path d="M 4.535156 22.5 L 370.535156 22.5 L 370.535156 205.5 L 4.535156 205.5 Z M 4.535156 22.5 " clip-rule="nonzero"/></clipPath></defs><g clip-path="url(#id1)"><path fill="rgb(100%, 75.689697%, 2.749634%)" d="M 340.035156 22.5 L 35.035156 22.5 C 18.257812 22.5 4.535156 36.226562 4.535156 53 L 4.535156 175 C 4.535156 191.773438 18.257812 205.5 35.035156 205.5 L 340.035156 205.5 C 356.808594 205.5 370.535156 191.773438 370.535156 175 L 370.535156 53 C 370.535156 36.226562 356.808594 22.5 340.035156 22.5 Z M 340.035156 22.5 " fill-opacity="1" fill-rule="nonzero"/></g><path fill="rgb(14.898682%, 19.60907%, 21.958923%)" d="M 218.796875 60.625 L 190.585938 60.625 L 190.585938 160.511719 L 218.796875 160.511719 C 234.046875 160.511719 240.148438 157.460938 243.960938 155.175781 C 248.535156 152.125 250.820312 146.789062 250.820312 141.449219 L 250.820312 81.210938 C 250.820312 74.351562 247.773438 68.25 243.960938 65.960938 C 237.859375 62.148438 235.570312 60.625 218.796875 60.625 Z M 224.132812 139.164062 C 224.132812 143.738281 218.796875 143.738281 214.222656 143.738281 L 214.222656 75.875 C 218.796875 75.875 224.132812 75.875 224.132812 80.449219 Z M 224.132812 139.164062 " fill-opacity="1" fill-rule="nonzero"/><path fill="rgb(14.898682%, 19.60907%, 21.958923%)" d="M 262.257812 60.625 L 262.257812 162.039062 L 283.609375 162.039062 C 283.609375 162.039062 285.132812 155.175781 286.660156 156.699219 C 289.710938 156.699219 298.097656 161.273438 303.433594 161.273438 C 308.773438 161.273438 311.820312 161.273438 314.871094 159.75 C 319.445312 156.699219 320.210938 154.414062 320.210938 149.835938 L 320.210938 90.363281 C 320.210938 81.976562 311.820312 76.636719 304.960938 76.636719 C 298.097656 76.636719 291.234375 81.210938 288.183594 83.5 L 288.183594 60.625 Z M 289.710938 92.648438 C 289.710938 89.601562 289.710938 88.074219 292.757812 88.074219 C 294.285156 88.074219 295.808594 89.601562 295.808594 92.648438 L 295.808594 142.976562 C 295.808594 146.023438 295.808594 147.550781 292.757812 147.550781 C 291.234375 147.550781 289.710938 146.023438 289.710938 142.976562 Z M 289.710938 92.648438 " fill-opacity="1" fill-rule="nonzero"/><path fill="rgb(14.898682%, 19.60907%, 21.958923%)" d="M 177.621094 162.039062 L 177.621094 60.625 L 144.070312 60.625 L 137.972656 108.664062 L 129.585938 60.625 L 99.085938 60.625 L 99.085938 162.039062 L 121.195312 162.039062 L 121.195312 105.613281 L 131.109375 162.039062 L 146.359375 162.039062 L 156.273438 105.613281 L 156.273438 162.039062 Z M 177.621094 162.039062 " fill-opacity="1" fill-rule="nonzero"/><path fill="rgb(14.898682%, 19.60907%, 21.958923%)" d="M 62.484375 60.625 L 86.121094 60.625 L 86.121094 162.039062 L 62.484375 162.039062 Z M 62.484375 60.625 " fill-opacity="1" fill-rule="nonzero"/></svg>