<svg xmlns="http://www.w3.org/2000/svg" xmlns:xlink="http://www.w3.org/1999/xlink" width="1000" zoomAndPan="magnify" viewBox="0 0 750 749.999995" height="1000" preserveAspectRatio="xMidYMid meet" version="1.0"><defs><clipPath id="id1"><path d="M 7.890625 9.445312 L 742.140625 9.445312 L 742.140625 743.695312 L 7.890625 743.695312 Z M 7.890625 9.445312 " clip-rule="nonzero"/></clipPath></defs><g clip-path="url(#id1)"><path fill="rgb(86.268616%, 7.839966%, 23.529053%)" d="M 375.015625 9.445312 C 172.269531 9.445312 7.890625 173.824219 7.890625 376.570312 C 7.890625 579.316406 172.269531 743.695312 375.015625 743.695312 C 577.757812 743.695312 742.140625 579.316406 742.140625 376.570312 C 742.140625 173.824219 577.757812 9.445312 375.015625 9.445312 Z M 237.21875 174.742188 C 262.980469 174.742188 280.144531 191.90625 280.144531 214.792969 C 280.144531 237.675781 262.980469 254.839844 234.375 254.839844 C 208.613281 254.867188 191.453125 237.675781 191.453125 214.792969 C 191.453125 191.90625 208.613281 174.742188 237.21875 174.742188 Z M 283.234375 529.539062 L 191.453125 529.539062 L 191.453125 284.789062 L 283.234375 284.789062 Z M 589.171875 529.539062 L 502.773438 529.539062 L 502.773438 395.785156 C 502.773438 358.796875 479.738281 350.261719 471.109375 350.261719 C 462.480469 350.261719 433.664062 355.949219 433.664062 395.785156 C 433.664062 401.472656 433.664062 529.539062 433.664062 529.539062 L 344.421875 529.539062 L 344.421875 284.789062 L 433.691406 284.789062 L 433.691406 318.933594 C 445.195312 299.015625 468.234375 284.789062 511.433594 284.789062 C 554.628906 284.789062 589.171875 318.933594 589.171875 395.785156 Z M 589.171875 529.539062 " fill-opacity="1" fill-rule="nonzero"/></g></svg>