<svg xmlns="http://www.w3.org/2000/svg" xmlns:xlink="http://www.w3.org/1999/xlink" width="300" zoomAndPan="magnify" viewBox="0 0 224.87999 225" height="300" preserveAspectRatio="xMidYMid meet" version="1.0"><defs><clipPath id="id1"><path d="M 0 20 L 223.019531 20 L 223.019531 40 L 0 40 Z M 0 20 " clip-rule="nonzero"/></clipPath><clipPath id="id2"><path d="M 31 102 L 223.019531 102 L 223.019531 122 L 31 122 Z M 31 102 " clip-rule="nonzero"/></clipPath><clipPath id="id3"><path d="M 69 183 L 223.019531 183 L 223.019531 203 L 69 203 Z M 69 183 " clip-rule="nonzero"/></clipPath></defs><g clip-path="url(#id1)"><path stroke-linecap="round" transform="matrix(-12.549482, 0, 0, 12.526716, 260.666145, -29.222008)" fill="none" stroke-linejoin="miter" d="M 3.750009 4.750108 L 20.000057 4.750108 " stroke="rgb(0%, 0%, 0%)" stroke-width="1.5" stroke-opacity="1" stroke-miterlimit="4"/></g><g clip-path="url(#id2)"><path stroke-linecap="round" transform="matrix(-12.549482, 0, 0, 12.526716, 260.666145, -29.222008)" fill="none" stroke-linejoin="miter" d="M 3.750009 11.249966 L 17.499954 11.249966 " stroke="rgb(0%, 0%, 0%)" stroke-width="1.5" stroke-opacity="1" stroke-miterlimit="4"/></g><g clip-path="url(#id3)"><path stroke-linecap="round" transform="matrix(-12.549482, 0, 0, 12.526716, 260.666145, -29.222008)" fill="none" stroke-linejoin="miter" d="M 3.750009 17.750136 L 14.499955 17.750136 " stroke="rgb(0%, 0%, 0%)" stroke-width="1.5" stroke-opacity="1" stroke-miterlimit="4"/></g></svg>